<?xml version="1.0"?>
<svg xmlns="http://www.w3.org/2000/svg" xmlns:xlink="http://www.w3.org/1999/xlink" xmlns:svgjs="http://svgjs.com/svgjs" version="1.1" width="512" height="512" x="0" y="0" viewBox="0 0 64 64" style="enable-background:new 0 0 512 512" xml:space="preserve" class=""><g><g xmlns="http://www.w3.org/2000/svg" fill="#c4a2fc"><path d="m47.936 34.255h-12.771a49.877 49.877 0 0 0 -.595 7h13.961a49.727 49.727 0 0 0 -.595-7z" fill="#e592fb" data-original="#c4a2fc" style=""/><path d="m49.623 32.255h10.39a21.039 21.039 0 0 0 -15.359-10.744c2.205 1.866 3.965 5.703 4.969 10.744z" fill="#e592fb" data-original="#c4a2fc" style=""/><path d="m49.623 52.255c-1 5.042-2.764 8.879-4.969 10.745a21.04 21.04 0 0 0 15.359-10.745z" fill="#e592fb" data-original="#c4a2fc" style=""/><path d="m35.54 52.255c1.319 6.173 3.752 10 6.011 10s4.691-3.827 6.01-10z" fill="#e592fb" data-original="#c4a2fc" style=""/><path d="m50.531 41.255h11.969a20.872 20.872 0 0 0 -1.541-7h-10.988a53.2 53.2 0 0 1 .56 7z" fill="#e592fb" data-original="#c4a2fc" style=""/><path d="m60.959 50.255a20.861 20.861 0 0 0 1.541-7h-11.969a53.167 53.167 0 0 1 -.56 7z" fill="#e592fb" data-original="#c4a2fc" style=""/><path d="m48.531 43.255h-13.961a49.851 49.851 0 0 0 .595 7h12.771a49.7 49.7 0 0 0 .595-7z" fill="#e592fb" data-original="#c4a2fc" style=""/><path d="m47.561 32.255c-1.319-6.172-3.752-10-6.01-10s-4.692 3.828-6.011 10z" fill="#e592fb" data-original="#c4a2fc" style=""/><path d="m22.143 34.255a20.848 20.848 0 0 0 -1.542 7h11.969a53.367 53.367 0 0 1 .56-7z" fill="#e592fb" data-original="#c4a2fc" style=""/><path d="m33.478 52.255h-10.39a21.038 21.038 0 0 0 15.359 10.745c-2.205-1.866-3.965-5.7-4.969-10.745z" fill="#e592fb" data-original="#c4a2fc" style=""/><path d="m33.478 32.255c1-5.041 2.764-8.878 4.969-10.744a21.039 21.039 0 0 0 -15.359 10.744z" fill="#e592fb" data-original="#c4a2fc" style=""/><path d="m32.57 43.255h-11.97a20.838 20.838 0 0 0 1.542 7h10.988a53.339 53.339 0 0 1 -.56-7z" fill="#e592fb" data-original="#c4a2fc" style=""/></g><path xmlns="http://www.w3.org/2000/svg" d="m40.5 1h-36a3 3 0 0 0 -3 3v36a3 3 0 0 0 3 3h36a3 3 0 0 0 3-3v-36a3 3 0 0 0 -3-3zm1 3v3h-23.382l-2-4h24.382a1 1 0 0 1 1 1zm-37-1h9.382l2 4h-12.382v-3a1 1 0 0 1 1-1zm36 38h-36a1 1 0 0 1 -1-1v-31h38v31a1 1 0 0 1 -1 1z" fill="#ffffff" data-original="#151a6a" style="" class=""/><path xmlns="http://www.w3.org/2000/svg" d="m35.5 14h-6a3 3 0 0 0 -3 3v16a3 3 0 0 0 3 3h6a3 3 0 0 0 3-3v-16a3 3 0 0 0 -3-3zm1 19a1 1 0 0 1 -1 1h-6a1 1 0 0 1 -1-1v-16a1 1 0 0 1 1-1h6a1 1 0 0 1 1 1z" fill="#ffffff" data-original="#151a6a" style="" class=""/><path xmlns="http://www.w3.org/2000/svg" d="m22.5 15h-15a1 1 0 0 0 0 2h15a1 1 0 0 0 0-2z" fill="#ffffff" data-original="#151a6a" style="" class=""/><path xmlns="http://www.w3.org/2000/svg" d="m22.5 21h-15a1 1 0 0 0 0 2h15a1 1 0 0 0 0-2z" fill="#ffffff" data-original="#151a6a" style="" class=""/><path xmlns="http://www.w3.org/2000/svg" d="m22.5 27h-15a1 1 0 0 0 0 2h15a1 1 0 0 0 0-2z" fill="#ffffff" data-original="#151a6a" style="" class=""/><path xmlns="http://www.w3.org/2000/svg" d="m22.5 33h-15a1 1 0 0 0 0 2h15a1 1 0 0 0 0-2z" fill="#ffffff" data-original="#151a6a" style="" class=""/></g></svg>
