<?xml version="1.0"?>
<svg xmlns="http://www.w3.org/2000/svg" xmlns:xlink="http://www.w3.org/1999/xlink" xmlns:svgjs="http://svgjs.com/svgjs" version="1.1" width="512" height="512" x="0" y="0" viewBox="0 0 64 64" style="enable-background:new 0 0 512 512" xml:space="preserve" class=""><g><path xmlns="http://www.w3.org/2000/svg" d="m50 52.5a3 3 0 0 1 3-3h10v-34a3 3 0 0 0 -3-3h-36a3 3 0 0 0 -3 3v44a3 3 0 0 0 3 3h26zm-13.248-7.659a1 1 0 1 1 -1.5 1.318l-7-8a1 1 0 0 1 0-1.318l7-8a1 1 0 1 1 1.5 1.318l-6.423 7.341zm5.24.783a1 1 0 1 1 -1.984-.248l2-16a1 1 0 0 1 1.984.248zm5.349.628a1 1 0 0 1 -.093-1.411l6.423-7.341-6.423-7.341a1 1 0 1 1 1.5-1.318l7 8a1 1 0 0 1 0 1.318l-7 8a1 1 0 0 1 -1.407.093z" fill="#e592fb" data-original="#c4a2fc" style="" class=""/><path xmlns="http://www.w3.org/2000/svg" d="m53 51.5a1 1 0 0 0 -1 1v9.87a2.96 2.96 0 0 0 1.293-.749l8.828-8.828a2.96 2.96 0 0 0 .749-1.293z" fill="#e592fb" data-original="#c4a2fc" style="" class=""/><path xmlns="http://www.w3.org/2000/svg" d="m38.6 33.7a1 1 0 0 0 -.6-.2h-3.363a12.961 12.961 0 0 0 .363-3v-3h7a1 1 0 0 0 0-2h-7v-6h3a1.006 1.006 0 0 0 .6-.2l4-3a1 1 0 1 0 -1.2-1.6l-3.733 2.8h-2.726a9.027 9.027 0 0 0 -7.941-7.941v-.059a4.985 4.985 0 0 0 -2.084-4.044l1.292-1.615 2.237 1.491a1 1 0 0 0 1.11-1.664l-3-2a1 1 0 0 0 -1.336.207l-2.187 2.734a4.94 4.94 0 0 0 -2.064 0l-2.187-2.734a1 1 0 0 0 -1.336-.207l-3 2a1 1 0 0 0 1.11 1.664l2.237-1.491 1.292 1.615a4.985 4.985 0 0 0 -2.084 4.044v.059a9.028 9.028 0 0 0 -7.941 7.941h-2.725l-3.734-2.8a1 1 0 0 0 -1.2 1.6l4 3a1.006 1.006 0 0 0 .6.2h3v6h-7a1 1 0 0 0 0 2h7v3a12.961 12.961 0 0 0 .363 3h-3.363a1 1 0 0 0 -.6.2l-4 3a1 1 0 1 0 1.2 1.6l3.734-2.8h3.666a13 13 0 0 0 24 0h3.67l3.73 2.8a1 1 0 1 0 1.2-1.6zm-16.6-18.2c-3.218 0-6.012-1.457-6.783-3.42a6.966 6.966 0 0 1 2.783-.58h8a6.971 6.971 0 0 1 2.784.58c-.772 1.963-3.565 3.42-6.784 3.42zm0-9a3 3 0 0 1 3 3h-6a3 3 0 0 1 3-3zm0 35a11.013 11.013 0 0 1 -11-11v-12a6.989 6.989 0 0 1 2.5-5.358c1.12 2.341 4.015 4.039 7.5 4.314v19.044a1 1 0 0 0 2 0v-19.044c3.482-.275 6.377-1.973 7.5-4.314a6.989 6.989 0 0 1 2.5 5.358v12a11.013 11.013 0 0 1 -11 11z" fill="#ffffff" data-original="#151a6a" style="" class=""/></g></svg>
