<?xml version="1.0"?>
<svg xmlns="http://www.w3.org/2000/svg" xmlns:xlink="http://www.w3.org/1999/xlink" xmlns:svgjs="http://svgjs.com/svgjs" version="1.1" width="512" height="512" x="0" y="0" viewBox="0 0 64 64" style="enable-background:new 0 0 512 512" xml:space="preserve" class=""><g><path xmlns="http://www.w3.org/2000/svg" d="M42.906,42.752v5.415a3.116,3.116,0,0,0,2.053-2.427C45.218,44.2,44.4,43.29,42.906,42.752Z" style="" fill="#e592fb" data-original="#c4a2fc"/><path xmlns="http://www.w3.org/2000/svg" d="M42,21A21,21,0,1,0,63,42,21.024,21.024,0,0,0,42,21Zm.906,30.5a1,1,0,0,1-2,0v-1.18a6.255,6.255,0,0,1-3.454-1.194,1,1,0,1,1,1.1-1.674,4.343,4.343,0,0,0,2.358.872V41.963c-2.357-1.045-3.893-2.256-3.394-4.9a4.212,4.212,0,0,1,3.394-3.435V32.5a1,1,0,1,1,2,0v1.054a5.385,5.385,0,0,1,2.712,1.193,1,1,0,0,1-1.349,1.477,3.29,3.29,0,0,0-1.363-.636v5.035c.321.122.643.239.957.351a4.456,4.456,0,0,1,3.068,5.1,5.077,5.077,0,0,1-4.025,4.171Zm11.9.1a16.1,16.1,0,0,1-8.534,5.825,1,1,0,0,1-.534-1.928A14.08,14.08,0,0,0,53.2,50.4a1,1,0,0,1,1.6,1.2Z" style="" fill="#e592fb" data-original="#c4a2fc"/><path xmlns="http://www.w3.org/2000/svg" d="M39.477,37.436c-.243,1.286.386,1.75,1.429,2.3V35.707A2.249,2.249,0,0,0,39.477,37.436Z" style="" fill="#e592fb" data-original="#c4a2fc"/><path xmlns="http://www.w3.org/2000/svg" d="M40,1H4A3,3,0,0,0,1,4V32a3,3,0,0,0,3,3H15.836l-.723,6H10a1,1,0,0,0,0,2H34a1,1,0,0,0,0-2H28.887l-.723-6H40a3,3,0,0,0,3-3V4A3,3,0,0,0,40,1ZM4.852,33,17.424,22.942A3.041,3.041,0,0,0,18,23h8a3.041,3.041,0,0,0,.576-.058L39.149,33ZM3,4.081l12.628,10.1A2.974,2.974,0,0,0,15,16v4a2.974,2.974,0,0,0,.628,1.816L3,31.919ZM18,21a1,1,0,0,1-1-1V16a1,1,0,0,1,1-1h8a1,1,0,0,1,1,1v4a1,1,0,0,1-1,1Zm2-8a2,2,0,0,1,4,0Zm6.576.058A3.041,3.041,0,0,0,26,13a4,4,0,0,0-8,0,3.041,3.041,0,0,0-.576.058L4.852,3h34.3Zm1.8,8.758A2.974,2.974,0,0,0,29,20V16a2.974,2.974,0,0,0-.628-1.816L41,4.081V31.918ZM26.872,41H17.128l.723-6h8.3Z" style="" fill="#ffffff" data-original="#151a6a" class=""/></g></svg>
