<?xml version="1.0"?>
<svg xmlns="http://www.w3.org/2000/svg" xmlns:xlink="http://www.w3.org/1999/xlink" xmlns:svgjs="http://svgjs.com/svgjs" version="1.1" width="512" height="512" x="0" y="0" viewBox="0 0 64 64" style="enable-background:new 0 0 512 512" xml:space="preserve" class=""><g><path xmlns="http://www.w3.org/2000/svg" d="M62.465,57.012,43.591,24.05a4,4,0,0,0-6.943,0L17.774,57.012A4,4,0,0,0,21.245,63H58.994A4,4,0,0,0,62.465,57.012ZM41.168,55a1,1,0,0,1-2,0V54a1,1,0,0,1,2,0Zm0-5a1,1,0,0,1-2,0V36a1,1,0,0,1,2,0Z" style="" fill="#e592fb" data-original="#c4a2fc"/><path xmlns="http://www.w3.org/2000/svg" d="M48,1H4A3,3,0,0,0,1,4V32a3,3,0,0,0,3,3H48a3,3,0,0,0,3-3V4A3,3,0,0,0,48,1ZM27.984,19.918a3.007,3.007,0,0,1-3.968,0L4.82,3H47.18ZM48,33H4a1,1,0,0,1-1-1V4.061L18.815,18l-8.226,7.25a1,1,0,1,0,1.323,1.5l8.415-7.417,2.367,2.086a5.01,5.01,0,0,0,6.612,0l2.367-2.086,8.416,7.417a1,1,0,0,0,1.322-1.5L33.185,18,49,4.062V32A1,1,0,0,1,48,33Z" style="" fill="#ffffff" data-original="#151a6a" class=""/></g></svg>
