<?xml version="1.0"?>
<svg xmlns="http://www.w3.org/2000/svg" xmlns:xlink="http://www.w3.org/1999/xlink" xmlns:svgjs="http://svgjs.com/svgjs" version="1.1" width="512" height="512" x="0" y="0" viewBox="0 0 64 64" style="enable-background:new 0 0 512 512" xml:space="preserve" class=""><g><path xmlns="http://www.w3.org/2000/svg" d="m58 21h-36a3 3 0 0 0 -3 3v36a3 3 0 0 0 3 3h36a3 3 0 0 0 3-3v-36a3 3 0 0 0 -3-3zm-23 35h-8a1 1 0 0 1 -1-1v-8a1 1 0 0 1 2 0v7h7a1 1 0 0 1 0 2zm0-26h-7v7a1 1 0 0 1 -2 0v-8a1 1 0 0 1 1-1h8a1 1 0 0 1 0 2zm19 25a1 1 0 0 1 -1 1h-8a1 1 0 0 1 0-2h7v-7a1 1 0 0 1 2 0zm0-18a1 1 0 0 1 -2 0v-7h-7a1 1 0 0 1 0-2h8a1 1 0 0 1 1 1z" fill="#ffffff" data-original="#c4a2fc" style="" class=""/><g xmlns="http://www.w3.org/2000/svg" fill="#151a6a"><path d="m31.974 5.932a1 1 0 0 0 -1.41 1.42 14.891 14.891 0 0 1 4.436 10.648v8a15.057 15.057 0 0 1 -7.5 12.993 1 1 0 1 0 1 1.732 17.066 17.066 0 0 0 8.5-14.725v-8a16.884 16.884 0 0 0 -5.026-12.068z" fill="#160f30" data-original="#151a6a" style="" class=""/><path d="m4 19a1 1 0 0 0 1-1 15 15 0 0 1 22.5-12.993 1 1 0 1 0 1-1.731 17 17 0 0 0 -25.5 14.724 1 1 0 0 0 1 1z" fill="#160f30" data-original="#151a6a" style="" class=""/><path d="m20 41a15.017 15.017 0 0 1 -15-15 1 1 0 0 0 -2 0 17.019 17.019 0 0 0 17 17 1 1 0 0 0 0-2z" fill="#160f30" data-original="#151a6a" style="" class=""/><path d="m20 7a11.013 11.013 0 0 0 -11 11v8a10.9 10.9 0 0 0 2.2 6.59 1 1 0 0 0 1.6-1.2 8.919 8.919 0 0 1 -1.8-5.39v-8a9 9 0 0 1 16.206-5.386 1 1 0 0 0 1.6-1.2 11.063 11.063 0 0 0 -8.806-4.414z" fill="#160f30" data-original="#151a6a" style="" class=""/><path d="m20 35a8.9 8.9 0 0 1 -3.974-.926 1 1 0 0 0 -.886 1.793 10.871 10.871 0 0 0 4.86 1.133 11.013 11.013 0 0 0 11-11v-8a1 1 0 0 0 -2 0v8a9.011 9.011 0 0 1 -9 9z" fill="#160f30" data-original="#151a6a" style="" class=""/><path d="m16 23a1 1 0 0 0 1-1v-4a3 3 0 0 1 6 0 1 1 0 0 0 2 0 5 5 0 0 0 -10 0v4a1 1 0 0 0 1 1z" fill="#160f30" data-original="#151a6a" style="" class=""/><path d="m20 31a5.006 5.006 0 0 0 5-5v-4a1 1 0 0 0 -2 0v4a3 3 0 0 1 -6 0 1 1 0 0 0 -2 0 5.006 5.006 0 0 0 5 5z" fill="#160f30" data-original="#151a6a" style="" class=""/></g></g></svg>
