<?xml version="1.0"?>
<svg xmlns="http://www.w3.org/2000/svg" xmlns:xlink="http://www.w3.org/1999/xlink" xmlns:svgjs="http://svgjs.com/svgjs" version="1.1" width="512" height="512" x="0" y="0" viewBox="0 0 64 64" style="enable-background:new 0 0 512 512" xml:space="preserve" class=""><g><path xmlns="http://www.w3.org/2000/svg" d="m59 31a3 3 0 0 0 -3-3h-36a3 3 0 0 0 -3 3v21h42z" fill="#e592fb" data-original="#c4a2fc" style=""/><path xmlns="http://www.w3.org/2000/svg" d="m62 54h-17a1 1 0 0 0 -.948.684 3.385 3.385 0 0 1 -3.214 2.316h-5.676a3.385 3.385 0 0 1 -3.214-2.316 1 1 0 0 0 -.948-.684h-17a1 1 0 0 0 -1 1 7.009 7.009 0 0 0 7 7h36a7.009 7.009 0 0 0 7-7 1 1 0 0 0 -1-1z" fill="#e592fb" data-original="#c4a2fc" style=""/><g xmlns="http://www.w3.org/2000/svg" fill="#151a6a"><path d="m29.44 15.931c0-6.585-4.133-8.931-8-8.931s-8 2.346-8 8.931c0 6.044 3.494 13.069 8 13.069s8-7.025 8-13.069zm-8 11.069c-2.916 0-6-5.689-6-11.069 0-4.4 2.186-6.931 6-6.931s6 2.526 6 6.931c0 5.38-3.084 11.069-6 11.069z" fill="#ffffff" data-original="#151a6a" style="" class=""/><path d="m41.788 40.272-2.243-8.972a6.987 6.987 0 0 0 -6.79-5.3h-2.243a24.978 24.978 0 0 0 2.928-11.5c0-7.71-4.6-12.5-12-12.5s-12 4.79-12 12.5a24.978 24.978 0 0 0 2.928 11.5h-2.244a6.988 6.988 0 0 0 -6.79 5.3l-2.243 8.97a3 3 0 0 0 2.909 3.73h34.878a3 3 0 0 0 2.91-3.728zm-2.91 1.728h-4.571l-.877-6.142a1 1 0 0 0 -1.981.284l.837 5.858h-9.846v-10a1 1 0 0 0 -2 0v10h-9.847l.837-5.858a1 1 0 0 0 -1.981-.284l-.877 6.142h-4.572a1 1 0 0 1 -.971-1.243l2.244-8.97a4.991 4.991 0 0 1 4.851-3.787h3.476a15.085 15.085 0 0 0 2.426 2.754 1 1 0 1 0 1.312-1.508c-3.417-2.972-5.9-9.173-5.9-14.746 0-6.673 3.644-10.5 10-10.5s10 3.827 10 10.5c0 5.573-2.48 11.774-5.9 14.746a1 1 0 1 0 1.313 1.508 15.16 15.16 0 0 0 2.431-2.754h3.473a4.993 4.993 0 0 1 4.851 3.788l2.243 8.969a1 1 0 0 1 -.971 1.243z" fill="#ffffff" data-original="#151a6a" style="" class=""/><circle cx="21.44" cy="22.975" r="1.025" fill="#ffffff" data-original="#151a6a" style="" class=""/><path d="m21.509 12a3.429 3.429 0 0 0 -3.42 2.909 3.526 3.526 0 0 0 -.033.474 1 1 0 0 0 2 0 1.285 1.285 0 0 1 .014-.194 1.382 1.382 0 0 1 1.37-1.189h.028a1.384 1.384 0 0 1 .975 2.336 1.372 1.372 0 0 1 -1 .431 1 1 0 0 0 -1 1v2.492a1 1 0 0 0 2 0v-1.644a3.4 3.4 0 0 0 1.453-.9 3.383 3.383 0 0 0 -2.387-5.715z" fill="#ffffff" data-original="#151a6a" style="" class=""/></g></g></svg>
