<?xml version="1.0"?>
<svg xmlns="http://www.w3.org/2000/svg" xmlns:xlink="http://www.w3.org/1999/xlink" xmlns:svgjs="http://svgjs.com/svgjs" version="1.1" width="512" height="512" x="0" y="0" viewBox="0 0 64 64" style="enable-background:new 0 0 512 512" xml:space="preserve" class=""><g><g xmlns="http://www.w3.org/2000/svg" fill="#c4a2fc"><path d="m21 55h42v-18h-42zm18.085-12.723a3 3 0 1 1 4.323 3.357l.864 3.456a2.342 2.342 0 1 1 -4.544 0l.864-3.456a2.988 2.988 0 0 1 -1.507-3.357z" fill="#e592fb" data-original="#c4a2fc" style=""/><path d="m21 60a3 3 0 0 0 3 3h36a3 3 0 0 0 3-3v-3h-42z" fill="#e592fb" data-original="#c4a2fc" style=""/><path d="m60 29h-27v-3a9 9 0 0 1 18 0 1 1 0 0 0 1 1h2a1 1 0 0 0 1-1 13 13 0 0 0 -26 0v3h-5a3 3 0 0 0 -3 3v3h42v-3a3 3 0 0 0 -3-3z" fill="#e592fb" data-original="#c4a2fc" style=""/></g><path xmlns="http://www.w3.org/2000/svg" d="m22 11a5 5 0 1 0 -5-5 5.006 5.006 0 0 0 5 5zm0-8a3 3 0 1 1 -3 3 3 3 0 0 1 3-3z" fill="#ffffff" data-original="#151a6a" style="" class=""/><path xmlns="http://www.w3.org/2000/svg" d="m22 33a5 5 0 1 0 5 5 5.006 5.006 0 0 0 -5-5zm0 8a3 3 0 1 1 3-3 3 3 0 0 1 -3 3z" fill="#ffffff" data-original="#151a6a" style="" class=""/><path xmlns="http://www.w3.org/2000/svg" d="m43 22a5.009 5.009 0 0 0 -4-4.9v-6.2a5.011 5.011 0 1 0 -5.167-2.146l-9.08 9.08a4.992 4.992 0 0 0 -6.92 6.92l-9.08 9.08a4.961 4.961 0 0 0 -1.753-.734v-6.2a5 5 0 0 0 0-9.8v-6.2a5 5 0 1 0 -2 0v6.2a5 5 0 0 0 0 9.8v6.2a5.011 5.011 0 1 0 5.167 2.146l9.08-9.08a4.992 4.992 0 0 0 6.92-6.92l9.08-9.08a4.969 4.969 0 0 0 1.753.734v6.2a5 5 0 0 0 0 9.8v6.2a5 5 0 1 0 2 0v-6.2a5.009 5.009 0 0 0 4-4.9zm-5-19a3 3 0 1 1 -3 3 3 3 0 0 1 3-3zm-35 3a3 3 0 1 1 3 3 3 3 0 0 1 -3-3zm0 16a3 3 0 1 1 3 3 3 3 0 0 1 -3-3zm3 19a3 3 0 1 1 3-3 3 3 0 0 1 -3 3zm16-16a3 3 0 1 1 3-3 3 3 0 0 1 -3 3zm13-3a3 3 0 1 1 3 3 3 3 0 0 1 -3-3zm6 16a3 3 0 1 1 -3-3 3 3 0 0 1 3 3z" fill="#ffffff" data-original="#151a6a" style="" class=""/></g></svg>
