<?xml version="1.0"?>
<svg xmlns="http://www.w3.org/2000/svg" xmlns:xlink="http://www.w3.org/1999/xlink" xmlns:svgjs="http://svgjs.com/svgjs" version="1.1" width="512" height="512" x="0" y="0" viewBox="0 0 64 64" style="enable-background:new 0 0 512 512" xml:space="preserve" class=""><g><g xmlns="http://www.w3.org/2000/svg" fill="#c4a2fc"><path d="m33.591 35.157c-3.968 2.007-5.536 4.4-8.177 6.843 2.677 2.482 4.2 4.832 8.177 6.843a10.816 10.816 0 0 1 0-13.686z" fill="#e592fb" data-original="#c4a2fc" style=""/><path d="m42 33.151a8.849 8.849 0 1 0 8.849 8.849 8.859 8.859 0 0 0 -8.849-8.849zm0 13.879a5.03 5.03 0 1 1 5.03-5.03 5.036 5.036 0 0 1 -5.03 5.03z" fill="#e592fb" data-original="#c4a2fc" style=""/><circle cx="42" cy="42" r="3.03" fill="#e592fb" data-original="#c4a2fc" style=""/><path d="m42 21a21 21 0 1 0 21 21 21.024 21.024 0 0 0 -21-21zm0 31.851c-11.356 0-16.254-8.257-18.707-10.144a1 1 0 0 1 0-1.414c2.491-1.916 7.455-10.144 18.707-10.144 11.356 0 16.254 8.257 18.707 10.144a1 1 0 0 1 0 1.414c-2.491 1.916-7.455 10.144-18.707 10.144z" fill="#e592fb" data-original="#c4a2fc" style=""/><path d="m50.409 35.157a10.816 10.816 0 0 1 0 13.686c3.968-2.007 5.536-4.4 8.177-6.843-2.677-2.482-4.202-4.832-8.177-6.843z" fill="#e592fb" data-original="#c4a2fc" style=""/></g><path xmlns="http://www.w3.org/2000/svg" d="m43 6a5.006 5.006 0 0 0 -5-5h-32a5 5 0 0 0 -1 9.9v14.1a17 17 0 0 0 34 0v-14.1a5.009 5.009 0 0 0 4-4.9zm-6 19a15 15 0 0 1 -30 0v-14h30zm1-16h-32a3 3 0 0 1 0-6h32a3 3 0 0 1 0 6z" fill="#ffffff" data-original="#151a6a" style="" class=""/><path xmlns="http://www.w3.org/2000/svg" d="m22 35a10 10 0 1 0 -10-10 10.011 10.011 0 0 0 10 10zm0-18a8 8 0 1 1 -8 8 8.009 8.009 0 0 1 8-8z" fill="#ffffff" data-original="#151a6a" style="" class=""/><path xmlns="http://www.w3.org/2000/svg" d="m22 21.5a3.5 3.5 0 1 0 3.5 3.5 3.5 3.5 0 0 0 -3.5-3.5zm0 5a1.5 1.5 0 1 1 1.5-1.5 1.5 1.5 0 0 1 -1.5 1.5z" fill="#ffffff" data-original="#151a6a" style="" class=""/></g></svg>
