<?xml version="1.0"?>
<svg xmlns="http://www.w3.org/2000/svg" xmlns:xlink="http://www.w3.org/1999/xlink" xmlns:svgjs="http://svgjs.com/svgjs" version="1.1" width="512" height="512" x="0" y="0" viewBox="0 0 64 64" style="enable-background:new 0 0 512 512" xml:space="preserve" class=""><g><path xmlns="http://www.w3.org/2000/svg" d="m62.447 20.105c-13.568-6.783-27.326-6.783-40.894 0a1 1 0 0 0 -.553.895v7.639a36.978 36.978 0 0 0 20.553 33.261 1 1 0 0 0 .894 0 36.978 36.978 0 0 0 20.553-33.261v-7.639a1 1 0 0 0 -.553-.895zm-10.336 14.479-11.311 9.389a1 1 0 0 1 -1.167.08l-7.633-4.747a1 1 0 0 1 1.055-1.7l7.025 4.367 10.754-8.929a1 1 0 1 1 1.277 1.539z" fill="#e592fb" data-original="#c4a2fc" style=""/><g xmlns="http://www.w3.org/2000/svg" fill="#151a6a"><path d="m39.447 3.658a2.983 2.983 0 0 0 -2.683-1.658h-28.656a2.986 2.986 0 0 0 -2.544 1.41l-4.109 6.574a3 3 0 0 0 -.455 1.59v9.426a2.981 2.981 0 0 0 .78 2 2.981 2.981 0 0 0 -.78 2v8a3 3 0 0 0 3 3h36a3 3 0 0 0 3-3v-8a2.981 2.981 0 0 0 -.78-2 2.981 2.981 0 0 0 .78-2v-9.528a3.022 3.022 0 0 0 -.316-1.342zm-32.187.813a1 1 0 0 1 .848-.471h28.656a1 1 0 0 1 .894.553l2.724 5.447h-36.582zm33.74 28.529a1 1 0 0 1 -1 1h-36a1 1 0 0 1 -1-1v-8a1 1 0 0 1 1-1h36a1 1 0 0 1 1 1zm0-12a1 1 0 0 1 -1 1h-36a1 1 0 0 1 -1-1v-8a1 1 0 0 1 1-1h36a1 1 0 0 1 1 1z" fill="#ffffff" data-original="#151a6a" style="" class=""/><path d="m22 14a1 1 0 0 0 -1 1v4a1 1 0 0 0 2 0v-4a1 1 0 0 0 -1-1z" fill="#ffffff" data-original="#151a6a" style="" class=""/><path d="m22 26a1 1 0 0 0 -1 1v4a1 1 0 0 0 2 0v-4a1 1 0 0 0 -1-1z" fill="#ffffff" data-original="#151a6a" style="" class=""/><path d="m15 14h-6a3 3 0 0 0 0 6h6a3 3 0 0 0 0-6zm0 4h-6a1 1 0 0 1 0-2h6a1 1 0 0 1 0 2z" fill="#ffffff" data-original="#151a6a" style="" class=""/><path d="m15 26h-6a3 3 0 0 0 0 6h6a3 3 0 0 0 0-6zm0 4h-6a1 1 0 0 1 0-2h6a1 1 0 0 1 0 2z" fill="#ffffff" data-original="#151a6a" style="" class=""/><path d="m37 14h-10a1 1 0 0 0 0 2h10a1 1 0 0 0 0-2z" fill="#ffffff" data-original="#151a6a" style="" class=""/><path d="m37 18h-10a1 1 0 0 0 0 2h10a1 1 0 0 0 0-2z" fill="#ffffff" data-original="#151a6a" style="" class=""/><path d="m37 26h-10a1 1 0 0 0 0 2h10a1 1 0 0 0 0-2z" fill="#ffffff" data-original="#151a6a" style="" class=""/><path d="m37 30h-10a1 1 0 0 0 0 2h10a1 1 0 0 0 0-2z" fill="#ffffff" data-original="#151a6a" style="" class=""/></g></g></svg>
