<?xml version="1.0"?>
<svg xmlns="http://www.w3.org/2000/svg" xmlns:xlink="http://www.w3.org/1999/xlink" xmlns:svgjs="http://svgjs.com/svgjs" version="1.1" width="512" height="512" x="0" y="0" viewBox="0 0 64 64" style="enable-background:new 0 0 512 512" xml:space="preserve" class=""><g><path xmlns="http://www.w3.org/2000/svg" d="m62 24a6.006 6.006 0 0 1 -6-6v-1.45a1 1 0 0 0 -.637-.932 35.714 35.714 0 0 0 -26.726 0 1 1 0 0 0 -.637.932v1.45a6.006 6.006 0 0 1 -6 6 1 1 0 0 0 -1 1v23.9a2.985 2.985 0 0 0 1.4 2.538l17.221 10.874a4.458 4.458 0 0 0 4.759 0l17.22-10.877a2.985 2.985 0 0 0 1.4-2.535v-23.9a1 1 0 0 0 -1-1zm-16.97 18.127a3.123 3.123 0 1 1 -6.06 0l1.152-4.608a4 4 0 1 1 3.756 0z" fill="#e592fb" data-original="#c4a2fc" style="" class=""/><g xmlns="http://www.w3.org/2000/svg" fill="#151a6a"><path d="m30 1h-26a3 3 0 0 0 -3 3v44a3 3 0 0 0 3 3h26a3 3 0 0 0 3-3v-44a3 3 0 0 0 -3-3zm-6.618 2-.724 1.447a.993.993 0 0 1 -.894.553h-9.528a.993.993 0 0 1 -.894-.553l-.724-1.447zm-19.382 0h4.382l1.171 2.342a2.985 2.985 0 0 0 2.683 1.658h9.528a2.985 2.985 0 0 0 2.683-1.658l1.171-2.342h4.382a1 1 0 0 1 1 1v41h-28v-41a1 1 0 0 1 1-1zm26 46h-26a1 1 0 0 1 -1-1v-1h28v1a1 1 0 0 1 -1 1z" fill="#ffffff" data-original="#151a6a" style="" class=""/><path d="m14.166 28.089a4.1 4.1 0 0 0 0 5.719 3.963 3.963 0 0 0 5.668 0 4.1 4.1 0 0 0 0-5.719 3.961 3.961 0 0 0 -5.668 0zm4.242 4.316a2.009 2.009 0 0 1 -2.816 0 2.088 2.088 0 0 1 0-2.914 1.963 1.963 0 0 1 2.816 0 2.088 2.088 0 0 1 0 2.914z" fill="#ffffff" data-original="#151a6a" style="" class=""/><path d="m17 22.035a8.652 8.652 0 0 0 -6.213 2.616 1 1 0 0 0 1.426 1.4 6.684 6.684 0 0 1 9.574 0 1 1 0 0 0 1.426-1.4 8.652 8.652 0 0 0 -6.213-2.616z" fill="#ffffff" data-original="#151a6a" style="" class=""/><path d="m8.713 22.493a11.577 11.577 0 0 1 16.574 0 1 1 0 0 0 1.426-1.4 13.576 13.576 0 0 0 -19.426 0 1 1 0 1 0 1.426 1.4z" fill="#ffffff" data-original="#151a6a" style="" class=""/></g></g></svg>
